<?xml version="1.0" encoding="UTF-8"?>
<!DOCTYPE svg PUBLIC "-//W3C//DTD SVG 1.1//EN" "http://www.w3.org/Graphics/SVG/1.1/DTD/svg11.dtd">
<svg xmlns="http://www.w3.org/2000/svg" version="1.1" width="2294px" height="616px" style="shape-rendering:geometricPrecision; text-rendering:geometricPrecision; image-rendering:optimizeQuality; fill-rule:evenodd; clip-rule:evenodd" xmlns:xlink="http://www.w3.org/1999/xlink">
<g><path style="opacity:0.997" fill="#0168a8" d="M 189.5,-0.5 C 331.833,-0.5 474.167,-0.5 616.5,-0.5C 613.885,77.2611 579.885,136.761 514.5,178C 482.593,196.247 448.26,205.413 411.5,205.5C 274.167,205.5 136.833,205.5 -0.5,205.5C -0.5,201.167 -0.5,196.833 -0.5,192.5C 7.78738,110.39 49.1207,51.5564 123.5,16C 144.841,7.33144 166.841,1.83144 189.5,-0.5 Z"/></g>
<g><path style="opacity:1" fill="#0a0a0a" d="M 1962.5,145.5 C 1985.5,145.5 2008.5,145.5 2031.5,145.5C 2031.5,254.833 2031.5,364.167 2031.5,473.5C 2008.5,473.5 1985.5,473.5 1962.5,473.5C 1962.5,364.167 1962.5,254.833 1962.5,145.5 Z"/></g>
<g><path style="opacity:1" fill="#060606" d="M 910.5,166.5 C 911.78,167.931 913.447,168.598 915.5,168.5C 917.153,168.66 918.486,169.326 919.5,170.5C 920.659,172.25 922.326,173.25 924.5,173.5C 926.153,173.66 927.486,174.326 928.5,175.5C 928.973,176.906 929.973,177.573 931.5,177.5C 931.973,178.906 932.973,179.573 934.5,179.5C 934.973,180.906 935.973,181.573 937.5,181.5C 937.973,182.906 938.973,183.573 940.5,183.5C 941.167,183.5 941.5,183.833 941.5,184.5C 941.973,185.906 942.973,186.573 944.5,186.5C 945.167,186.5 945.5,186.833 945.5,187.5C 946.262,189.262 947.596,190.262 949.5,190.5C 950.833,191.167 951.833,192.167 952.5,193.5C 955.5,197.167 958.833,200.5 962.5,203.5C 963.833,204.167 964.833,205.167 965.5,206.5C 965.738,208.404 966.738,209.738 968.5,210.5C 969.167,210.5 969.5,210.833 969.5,211.5C 969.738,213.404 970.738,214.738 972.5,215.5C 972.427,217.027 973.094,218.027 974.5,218.5C 976.326,220.147 977.66,222.147 978.5,224.5C 977.833,225.5 977.167,226.5 976.5,227.5C 975.486,228.674 974.153,229.34 972.5,229.5C 970.973,229.427 969.973,230.094 969.5,231.5C 969.158,232.338 968.492,232.672 967.5,232.5C 965.973,232.427 964.973,233.094 964.5,234.5C 963.486,235.674 962.153,236.34 960.5,236.5C 958.973,236.427 957.973,237.094 957.5,238.5C 957.158,239.338 956.492,239.672 955.5,239.5C 953.326,239.75 951.659,240.75 950.5,242.5C 950.158,243.338 949.492,243.672 948.5,243.5C 946.973,243.427 945.973,244.094 945.5,245.5C 944.486,246.674 943.153,247.34 941.5,247.5C 939.973,247.427 938.973,248.094 938.5,249.5C 938.158,250.338 937.492,250.672 936.5,250.5C 934.326,250.75 932.659,251.75 931.5,253.5C 931.158,254.338 930.492,254.672 929.5,254.5C 927.973,254.427 926.973,255.094 926.5,256.5C 925.486,257.674 924.153,258.34 922.5,258.5C 920.973,258.427 919.973,259.094 919.5,260.5C 918.5,260.5 917.5,260.5 916.5,260.5C 916.573,258.973 915.906,257.973 914.5,257.5C 914.573,255.973 913.906,254.973 912.5,254.5C 911.833,254.5 911.5,254.167 911.5,253.5C 911.262,251.596 910.262,250.262 908.5,249.5C 905.833,247.5 903.5,245.167 901.5,242.5C 900.738,240.738 899.404,239.738 897.5,239.5C 897.027,238.094 896.027,237.427 894.5,237.5C 894.027,236.094 893.027,235.427 891.5,235.5C 890.508,235.672 889.842,235.338 889.5,234.5C 887.421,232.127 884.754,230.794 881.5,230.5C 855.043,220.966 828.71,221.299 802.5,231.5C 799.911,231.461 797.911,232.461 796.5,234.5C 796.158,235.338 795.492,235.672 794.5,235.5C 792.973,235.427 791.973,236.094 791.5,237.5C 789.973,237.427 788.973,238.094 788.5,239.5C 786.596,239.738 785.262,240.738 784.5,242.5C 784.5,243.167 784.167,243.5 783.5,243.5C 779.5,245.5 776.5,248.5 774.5,252.5C 774.167,253.5 773.5,254.167 772.5,254.5C 771.094,254.973 770.427,255.973 770.5,257.5C 770.5,258.167 770.167,258.5 769.5,258.5C 768.094,258.973 767.427,259.973 767.5,261.5C 767.672,262.492 767.338,263.158 766.5,263.5C 765.094,263.973 764.427,264.973 764.5,266.5C 764.008,268.819 763.008,270.819 761.5,272.5C 760.069,273.78 759.402,275.447 759.5,277.5C 751.222,304.279 751.556,330.945 760.5,357.5C 760.402,359.553 761.069,361.22 762.5,362.5C 763.338,362.842 763.672,363.508 763.5,364.5C 763.427,366.027 764.094,367.027 765.5,367.5C 766.338,367.842 766.672,368.508 766.5,369.5C 766.427,371.027 767.094,372.027 768.5,372.5C 768.427,374.027 769.094,375.027 770.5,375.5C 771.167,375.5 771.5,375.833 771.5,376.5C 771.738,378.404 772.738,379.738 774.5,380.5C 777.833,383.167 780.833,386.167 783.5,389.5C 784.262,391.262 785.596,392.262 787.5,392.5C 787.973,393.906 788.973,394.573 790.5,394.5C 791.71,394.932 792.71,395.599 793.5,396.5C 793.973,397.906 794.973,398.573 796.5,398.5C 826.699,412.619 857.032,412.952 887.5,399.5C 889.027,399.573 890.027,398.906 890.5,397.5C 890.842,396.662 891.508,396.328 892.5,396.5C 894.027,396.573 895.027,395.906 895.5,394.5C 897.027,394.573 898.027,393.906 898.5,392.5C 898.5,391.833 898.833,391.5 899.5,391.5C 901.749,390.92 903.415,389.587 904.5,387.5C 904.833,386.5 905.5,385.833 906.5,385.5C 908.587,384.415 909.92,382.749 910.5,380.5C 910.5,379.833 910.833,379.5 911.5,379.5C 912.906,379.027 913.573,378.027 913.5,376.5C 913.932,375.29 914.599,374.29 915.5,373.5C 917.451,372.359 919.451,372.359 921.5,373.5C 922.492,373.328 923.158,373.662 923.5,374.5C 923.973,375.906 924.973,376.573 926.5,376.5C 928.153,376.66 929.486,377.326 930.5,378.5C 930.973,379.906 931.973,380.573 933.5,380.5C 934.492,380.328 935.158,380.662 935.5,381.5C 935.973,382.906 936.973,383.573 938.5,383.5C 940.153,383.66 941.486,384.326 942.5,385.5C 942.973,386.906 943.973,387.573 945.5,387.5C 947.153,387.66 948.486,388.326 949.5,389.5C 949.973,390.906 950.973,391.573 952.5,391.5C 953.492,391.328 954.158,391.662 954.5,392.5C 954.973,393.906 955.973,394.573 957.5,394.5C 959.153,394.66 960.486,395.326 961.5,396.5C 961.973,397.906 962.973,398.573 964.5,398.5C 965.492,398.328 966.158,398.662 966.5,399.5C 967.659,401.25 969.326,402.25 971.5,402.5C 972.492,402.328 973.158,402.662 973.5,403.5C 973.973,404.906 974.973,405.573 976.5,405.5C 979.051,405.668 979.718,406.668 978.5,408.5C 977.094,408.973 976.427,409.973 976.5,411.5C 975.094,411.973 974.427,412.973 974.5,414.5C 973.094,414.973 972.427,415.973 972.5,417.5C 972.5,418.167 972.167,418.5 971.5,418.5C 970.094,418.973 969.427,419.973 969.5,421.5C 969.5,422.167 969.167,422.5 968.5,422.5C 966.738,423.262 965.738,424.596 965.5,426.5C 964.833,427.833 963.833,428.833 962.5,429.5C 958.833,432.5 955.5,435.833 952.5,439.5C 951.833,440.833 950.833,441.833 949.5,442.5C 947.596,442.738 946.262,443.738 945.5,445.5C 945.5,446.167 945.167,446.5 944.5,446.5C 942.973,446.427 941.973,447.094 941.5,448.5C 941.5,449.167 941.167,449.5 940.5,449.5C 938.973,449.427 937.973,450.094 937.5,451.5C 935.973,451.427 934.973,452.094 934.5,453.5C 932.973,453.427 931.973,454.094 931.5,455.5C 929.973,455.427 928.973,456.094 928.5,457.5C 927.486,458.674 926.153,459.34 924.5,459.5C 920.182,460.992 916.182,462.992 912.5,465.5C 898.105,472.77 882.772,477.27 866.5,479C 835.112,482.785 804.779,478.785 775.5,467C 770.613,464.726 765.946,462.226 761.5,459.5C 761.027,458.094 760.027,457.427 758.5,457.5C 757.508,457.672 756.842,457.338 756.5,456.5C 756.027,455.094 755.027,454.427 753.5,454.5C 753.027,453.094 752.027,452.427 750.5,452.5C 750.027,451.094 749.027,450.427 747.5,450.5C 746.833,450.5 746.5,450.167 746.5,449.5C 746.027,448.094 745.027,447.427 743.5,447.5C 742.833,447.5 742.5,447.167 742.5,446.5C 741.738,444.738 740.404,443.738 738.5,443.5C 737.167,442.833 736.167,441.833 735.5,440.5C 730.833,435.167 725.833,430.167 720.5,425.5C 719.5,425.167 718.833,424.5 718.5,423.5C 718.262,421.596 717.262,420.262 715.5,419.5C 714.5,419.167 713.833,418.5 713.5,417.5C 713.573,415.973 712.906,414.973 711.5,414.5C 711.573,412.973 710.906,411.973 709.5,411.5C 708.833,411.5 708.5,411.167 708.5,410.5C 708.573,408.973 707.906,407.973 706.5,407.5C 706.573,405.973 705.906,404.973 704.5,404.5C 703.662,404.158 703.328,403.492 703.5,402.5C 703.573,400.973 702.906,399.973 701.5,399.5C 698.659,395.151 696.326,390.484 694.5,385.5C 694.598,383.447 693.931,381.78 692.5,380.5C 684.031,360.145 680.031,338.812 680.5,316.5C 680.235,295.19 683.735,274.523 691,254.5C 692.04,251.177 693.54,248.177 695.5,245.5C 697.674,242.485 699.341,239.151 700.5,235.5C 700.66,233.847 701.326,232.514 702.5,231.5C 703.906,231.027 704.573,230.027 704.5,228.5C 705.906,228.027 706.573,227.027 706.5,225.5C 706.427,223.973 707.094,222.973 708.5,222.5C 709.906,222.027 710.573,221.027 710.5,219.5C 711.906,219.027 712.573,218.027 712.5,216.5C 712.5,215.833 712.833,215.5 713.5,215.5C 715.262,214.738 716.262,213.404 716.5,211.5C 716.833,210.5 717.5,209.833 718.5,209.5C 720.914,208.089 722.581,206.089 723.5,203.5C 726.167,200.167 729.167,197.167 732.5,194.5C 735.089,193.581 737.089,191.914 738.5,189.5C 738.5,188.833 738.833,188.5 739.5,188.5C 741.404,188.262 742.738,187.262 743.5,185.5C 743.5,184.833 743.833,184.5 744.5,184.5C 746.027,184.573 747.027,183.906 747.5,182.5C 747.5,181.833 747.833,181.5 748.5,181.5C 750.027,181.573 751.027,180.906 751.5,179.5C 753.027,179.573 754.027,178.906 754.5,177.5C 756.336,175.412 758.669,174.079 761.5,173.5C 763.027,173.573 764.027,172.906 764.5,171.5C 784.372,160.694 805.705,154.528 828.5,153C 851.286,151.087 873.62,153.421 895.5,160C 900.807,161.705 905.807,163.871 910.5,166.5 Z"/></g>
<g><path style="opacity:0.446" fill="#fefffe" d="M 1084.5,267.5 C 1084.22,268.289 1083.72,268.956 1083,269.5C 1082.5,232.835 1082.33,196.168 1082.5,159.5C 1060.17,159.5 1037.83,159.5 1015.5,159.5C 1015.5,264.167 1015.5,368.833 1015.5,473.5C 1014.5,368.668 1014.17,263.668 1014.5,158.5C 1037.5,158.5 1060.5,158.5 1083.5,158.5C 1083.17,195.004 1083.5,231.337 1084.5,267.5 Z"/></g>
<g><path style="opacity:0.345" fill="#fefffe" d="M 1923.5,159.5 C 1859.83,159.5 1796.17,159.5 1732.5,159.5C 1732.5,264.167 1732.5,368.833 1732.5,473.5C 1731.5,368.668 1731.17,263.668 1731.5,158.5C 1795.67,158.168 1859.67,158.501 1923.5,159.5 Z"/></g>
<g><path style="opacity:1" fill="#050505" d="M 1084.5,267.5 C 1087.83,264.833 1090.83,261.833 1093.5,258.5C 1093.5,257.833 1093.83,257.5 1094.5,257.5C 1096.03,257.573 1097.03,256.906 1097.5,255.5C 1099.03,255.573 1100.03,254.906 1100.5,253.5C 1114.44,245.339 1129.61,241.673 1146,242.5C 1161.76,241.679 1176.26,245.345 1189.5,253.5C 1189.97,254.906 1190.97,255.573 1192.5,255.5C 1192.97,256.906 1193.97,257.573 1195.5,257.5C 1196.26,259.262 1197.6,260.262 1199.5,260.5C 1200.17,260.5 1200.5,260.833 1200.5,261.5C 1203.5,265.167 1206.83,268.5 1210.5,271.5C 1211.17,271.5 1211.5,271.833 1211.5,272.5C 1211.74,274.404 1212.74,275.738 1214.5,276.5C 1214.43,278.027 1215.09,279.027 1216.5,279.5C 1216.43,281.027 1217.09,282.027 1218.5,282.5C 1226.54,296.299 1230.7,311.299 1231,327.5C 1231.5,376.166 1231.67,424.832 1231.5,473.5C 1208.5,473.5 1185.5,473.5 1162.5,473.5C 1162.67,427.499 1162.5,381.499 1162,335.5C 1160.93,331.453 1159.76,327.453 1158.5,323.5C 1158.57,321.973 1157.91,320.973 1156.5,320.5C 1156.57,318.973 1155.91,317.973 1154.5,317.5C 1153.17,316.833 1152.17,315.833 1151.5,314.5C 1150.74,312.738 1149.4,311.738 1147.5,311.5C 1147.03,310.094 1146.03,309.427 1144.5,309.5C 1130,303.922 1115.67,304.256 1101.5,310.5C 1099.97,310.427 1098.97,311.094 1098.5,312.5C 1095.17,313.833 1092.83,316.167 1091.5,319.5C 1091.5,320.167 1091.17,320.5 1090.5,320.5C 1088.75,321.659 1087.75,323.326 1087.5,325.5C 1086.03,330.057 1084.86,334.724 1084,339.5C 1083.5,384.165 1083.33,428.832 1083.5,473.5C 1060.83,473.5 1038.17,473.5 1015.5,473.5C 1015.5,368.833 1015.5,264.167 1015.5,159.5C 1037.83,159.5 1060.17,159.5 1082.5,159.5C 1082.33,196.168 1082.5,232.835 1083,269.5C 1083.72,268.956 1084.22,268.289 1084.5,267.5 Z"/></g>
<g><path style="opacity:1" fill="#000000" d="M 1923.5,159.5 C 1923.5,182.5 1923.5,205.5 1923.5,228.5C 1883.83,228.5 1844.17,228.5 1804.5,228.5C 1804.5,248.5 1804.5,268.5 1804.5,288.5C 1843,289.499 1881.66,289.832 1920.5,289.5C 1920.5,312.167 1920.5,334.833 1920.5,357.5C 1881.66,357.168 1843,357.501 1804.5,358.5C 1804.5,396.833 1804.5,435.167 1804.5,473.5C 1780.5,473.5 1756.5,473.5 1732.5,473.5C 1732.5,368.833 1732.5,264.167 1732.5,159.5C 1796.17,159.5 1859.83,159.5 1923.5,159.5 Z"/></g>
<g><path style="opacity:0.502" fill="#fefffe" d="M 910.5,166.5 C 912.553,166.402 914.22,167.069 915.5,168.5C 913.447,168.598 911.78,167.931 910.5,166.5 Z"/></g>
<g><path style="opacity:0.52" fill="#fefffe" d="M 919.5,170.5 C 921.674,170.75 923.341,171.75 924.5,173.5C 922.326,173.25 920.659,172.25 919.5,170.5 Z"/></g>
<g><path style="opacity:0.486" fill="#fefffe" d="M 764.5,171.5 C 764.027,172.906 763.027,173.573 761.5,173.5C 761.973,172.094 762.973,171.427 764.5,171.5 Z"/></g>
<g><path style="opacity:0.439" fill="#fefffe" d="M 928.5,175.5 C 930.027,175.427 931.027,176.094 931.5,177.5C 929.973,177.573 928.973,176.906 928.5,175.5 Z"/></g>
<g><path style="opacity:0.439" fill="#fefffe" d="M 754.5,177.5 C 754.027,178.906 753.027,179.573 751.5,179.5C 751.973,178.094 752.973,177.427 754.5,177.5 Z"/></g>
<g><path style="opacity:0.549" fill="#fefffe" d="M 931.5,177.5 C 933.027,177.427 934.027,178.094 934.5,179.5C 932.973,179.573 931.973,178.906 931.5,177.5 Z"/></g>
<g><path style="opacity:0.439" fill="#fefffe" d="M 751.5,179.5 C 751.027,180.906 750.027,181.573 748.5,181.5C 748.973,180.094 749.973,179.427 751.5,179.5 Z"/></g>
<g><path style="opacity:0.565" fill="#fefffe" d="M 934.5,179.5 C 936.027,179.427 937.027,180.094 937.5,181.5C 935.973,181.573 934.973,180.906 934.5,179.5 Z"/></g>
<g><path style="opacity:0.486" fill="#fefffe" d="M 937.5,181.5 C 939.027,181.427 940.027,182.094 940.5,183.5C 938.973,183.573 937.973,182.906 937.5,181.5 Z"/></g>
<g><path style="opacity:0.533" fill="#fefffe" d="M 747.5,182.5 C 747.027,183.906 746.027,184.573 744.5,184.5C 744.973,183.094 745.973,182.427 747.5,182.5 Z"/></g>
<g><path style="opacity:0.549" fill="#fefffe" d="M 941.5,184.5 C 943.027,184.427 944.027,185.094 944.5,186.5C 942.973,186.573 941.973,185.906 941.5,184.5 Z"/></g>
<g><path style="opacity:0.533" fill="#fefffe" d="M 743.5,185.5 C 742.738,187.262 741.404,188.262 739.5,188.5C 740.262,186.738 741.596,185.738 743.5,185.5 Z"/></g>
<g><path style="opacity:1" fill="#020202" d="M 1641.5,248.5 C 1656.66,249.496 1671.99,249.83 1687.5,249.5C 1687.5,270.833 1687.5,292.167 1687.5,313.5C 1671.99,313.17 1656.66,313.504 1641.5,314.5C 1641.33,340.502 1641.5,366.502 1642,392.5C 1641.97,398.262 1643.81,403.262 1647.5,407.5C 1648.91,409.539 1650.91,410.539 1653.5,410.5C 1664.44,412.064 1675.44,412.73 1686.5,412.5C 1687.5,432.66 1687.83,452.993 1687.5,473.5C 1684.61,473.194 1681.95,473.527 1679.5,474.5C 1663.51,475.895 1647.51,475.729 1631.5,474C 1621.35,472.897 1612.02,469.73 1603.5,464.5C 1603.03,463.094 1602.03,462.427 1600.5,462.5C 1600.03,461.094 1599.03,460.427 1597.5,460.5C 1594.83,458.5 1592.5,456.167 1590.5,453.5C 1590.57,451.973 1589.91,450.973 1588.5,450.5C 1587.09,450.027 1586.43,449.027 1586.5,447.5C 1586.57,445.973 1585.91,444.973 1584.5,444.5C 1583.33,443.486 1582.66,442.153 1582.5,440.5C 1582.6,438.447 1581.93,436.78 1580.5,435.5C 1576.47,425.68 1574.47,415.346 1574.5,404.5C 1574.5,374.167 1574.5,343.833 1574.5,313.5C 1562.5,313.5 1550.5,313.5 1538.5,313.5C 1538.5,292.167 1538.5,270.833 1538.5,249.5C 1550.5,249.5 1562.5,249.5 1574.5,249.5C 1573.88,234.59 1574.54,219.924 1576.5,205.5C 1597.66,198.67 1619,192.003 1640.5,185.5C 1641.5,206.489 1641.83,227.489 1641.5,248.5 Z"/></g>
<g><path style="opacity:0.492" fill="#fefffe" d="M 945.5,187.5 C 947.404,187.738 948.738,188.738 949.5,190.5C 947.596,190.262 946.262,189.262 945.5,187.5 Z"/></g>
<g><path style="opacity:0.502" fill="#fefffe" d="M 738.5,189.5 C 737.089,191.914 735.089,193.581 732.5,194.5C 733.911,192.086 735.911,190.419 738.5,189.5 Z"/></g>
<g><path style="opacity:0.452" fill="#fefffe" d="M 952.5,193.5 C 956.833,195.833 960.167,199.167 962.5,203.5C 958.833,200.5 955.5,197.167 952.5,193.5 Z"/></g>
<g><path style="opacity:0.527" fill="#fefffe" d="M 723.5,203.5 C 722.581,206.089 720.914,208.089 718.5,209.5C 719.419,206.911 721.086,204.911 723.5,203.5 Z"/></g>
<g><path style="opacity:0.999" fill="#2f77b5" d="M -0.5,205.5 C 136.833,205.5 274.167,205.5 411.5,205.5C 408.576,282.884 374.576,342.05 309.5,383C 277.344,401.54 242.677,410.706 205.5,410.5C 137.002,409.501 68.3354,409.167 -0.5,409.5C -0.5,341.5 -0.5,273.5 -0.5,205.5 Z"/></g>
<g><path style="opacity:0.464" fill="#fefffe" d="M 1576.5,205.5 C 1574.54,219.924 1573.88,234.59 1574.5,249.5C 1562.5,249.5 1550.5,249.5 1538.5,249.5C 1538.5,270.833 1538.5,292.167 1538.5,313.5C 1550.5,313.5 1562.5,313.5 1574.5,313.5C 1574.5,343.833 1574.5,374.167 1574.5,404.5C 1573.5,374.671 1573.17,344.671 1573.5,314.5C 1561.5,314.5 1549.5,314.5 1537.5,314.5C 1537.5,292.5 1537.5,270.5 1537.5,248.5C 1549.5,248.5 1561.5,248.5 1573.5,248.5C 1573.5,234.167 1573.5,219.833 1573.5,205.5C 1574.5,205.5 1575.5,205.5 1576.5,205.5 Z"/></g>
<g><path style="opacity:0.533" fill="#fefffe" d="M 965.5,206.5 C 967.262,207.262 968.262,208.596 968.5,210.5C 966.738,209.738 965.738,208.404 965.5,206.5 Z"/></g>
<g><path style="opacity:0.471" fill="#fefffe" d="M 716.5,211.5 C 716.262,213.404 715.262,214.738 713.5,215.5C 713.738,213.596 714.738,212.262 716.5,211.5 Z"/></g>
<g><path style="opacity:0.502" fill="#fefffe" d="M 969.5,211.5 C 971.262,212.262 972.262,213.596 972.5,215.5C 970.738,214.738 969.738,213.404 969.5,211.5 Z"/></g>
<g><path style="opacity:0.565" fill="#fefffe" d="M 972.5,215.5 C 973.906,215.973 974.573,216.973 974.5,218.5C 973.094,218.027 972.427,217.027 972.5,215.5 Z"/></g>
<g><path style="opacity:0.439" fill="#fefffe" d="M 712.5,216.5 C 712.573,218.027 711.906,219.027 710.5,219.5C 710.427,217.973 711.094,216.973 712.5,216.5 Z"/></g>
<g><path style="opacity:0.549" fill="#fefffe" d="M 710.5,219.5 C 710.573,221.027 709.906,222.027 708.5,222.5C 708.427,220.973 709.094,219.973 710.5,219.5 Z"/></g>
<g><path style="opacity:0.477" fill="#fefffe" d="M 978.5,224.5 C 979.718,226.332 979.051,227.332 976.5,227.5C 977.167,226.5 977.833,225.5 978.5,224.5 Z"/></g>
<g><path style="opacity:0.565" fill="#fefffe" d="M 706.5,225.5 C 706.573,227.027 705.906,228.027 704.5,228.5C 704.427,226.973 705.094,225.973 706.5,225.5 Z"/></g>
<g><path style="opacity:0.439" fill="#fefffe" d="M 704.5,228.5 C 704.573,230.027 703.906,231.027 702.5,231.5C 702.427,229.973 703.094,228.973 704.5,228.5 Z"/></g>
<g><path style="opacity:0.549" fill="#fefffe" d="M 972.5,229.5 C 972.027,230.906 971.027,231.573 969.5,231.5C 969.973,230.094 970.973,229.427 972.5,229.5 Z"/></g>
<g><path style="opacity:0.468" fill="#fefffe" d="M 881.5,230.5 C 884.754,230.794 887.421,232.127 889.5,234.5C 886.515,233.674 883.849,232.341 881.5,230.5 Z"/></g>
<g><path style="opacity:0.471" fill="#fefffe" d="M 802.5,231.5 C 800.819,233.008 798.819,234.008 796.5,234.5C 797.911,232.461 799.911,231.461 802.5,231.5 Z"/></g>
<g><path style="opacity:0.471" fill="#fefffe" d="M 967.5,232.5 C 967.027,233.906 966.027,234.573 964.5,234.5C 964.973,233.094 965.973,232.427 967.5,232.5 Z"/></g>
<g><path style="opacity:0.511" fill="#fefffe" d="M 700.5,235.5 C 699.341,239.151 697.674,242.485 695.5,245.5C 696.127,241.58 697.793,238.247 700.5,235.5 Z"/></g>
<g><path style="opacity:0.455" fill="#fefffe" d="M 794.5,235.5 C 794.027,236.906 793.027,237.573 791.5,237.5C 791.973,236.094 792.973,235.427 794.5,235.5 Z"/></g>
<g><path style="opacity:0.439" fill="#fefffe" d="M 891.5,235.5 C 893.027,235.427 894.027,236.094 894.5,237.5C 892.973,237.573 891.973,236.906 891.5,235.5 Z"/></g>
<g><path style="opacity:0.502" fill="#fefffe" d="M 960.5,236.5 C 960.027,237.906 959.027,238.573 957.5,238.5C 957.973,237.094 958.973,236.427 960.5,236.5 Z"/></g>
<g><path style="opacity:0.439" fill="#fefffe" d="M 791.5,237.5 C 791.027,238.906 790.027,239.573 788.5,239.5C 788.973,238.094 789.973,237.427 791.5,237.5 Z"/></g>
<g><path style="opacity:0.455" fill="#fefffe" d="M 894.5,237.5 C 896.027,237.427 897.027,238.094 897.5,239.5C 895.973,239.573 894.973,238.906 894.5,237.5 Z"/></g>
<g><path style="opacity:0.481" fill="#fefffe" d="M 788.5,239.5 C 787.738,241.262 786.404,242.262 784.5,242.5C 785.262,240.738 786.596,239.738 788.5,239.5 Z"/></g>
<g><path style="opacity:0.533" fill="#fefffe" d="M 897.5,239.5 C 899.404,239.738 900.738,240.738 901.5,242.5C 899.596,242.262 898.262,241.262 897.5,239.5 Z"/></g>
<g><path style="opacity:0.493" fill="#fefffe" d="M 955.5,239.5 C 954.341,241.25 952.674,242.25 950.5,242.5C 951.659,240.75 953.326,239.75 955.5,239.5 Z"/></g>
<g><path style="opacity:1" fill="#040404" d="M 1417.5,252.5 C 1418.66,254.25 1420.33,255.25 1422.5,255.5C 1422.97,256.906 1423.97,257.573 1425.5,257.5C 1425.97,258.906 1426.97,259.573 1428.5,259.5C 1429.5,259.833 1430.17,260.5 1430.5,261.5C 1432.81,264.479 1435.48,267.146 1438.5,269.5C 1439.5,262.866 1439.83,256.2 1439.5,249.5C 1461.83,249.5 1484.17,249.5 1506.5,249.5C 1506.5,324.167 1506.5,398.833 1506.5,473.5C 1484.17,473.5 1461.83,473.5 1439.5,473.5C 1439.67,466.492 1439.5,459.492 1439,452.5C 1438.28,453.044 1437.78,453.711 1437.5,454.5C 1435.83,456.833 1433.83,458.833 1431.5,460.5C 1429.6,460.738 1428.26,461.738 1427.5,463.5C 1425.85,465.326 1423.85,466.66 1421.5,467.5C 1419.97,467.427 1418.97,468.094 1418.5,469.5C 1417.49,470.674 1416.15,471.34 1414.5,471.5C 1412.45,471.402 1410.78,472.069 1409.5,473.5C 1386.15,482.2 1362.49,482.7 1338.5,475C 1332.49,472.663 1326.83,469.83 1321.5,466.5C 1321.03,465.094 1320.03,464.427 1318.5,464.5C 1318.03,463.094 1317.03,462.427 1315.5,462.5C 1315.03,461.094 1314.03,460.427 1312.5,460.5C 1311.83,460.5 1311.5,460.167 1311.5,459.5C 1310.74,457.738 1309.4,456.738 1307.5,456.5C 1306.5,456.167 1305.83,455.5 1305.5,454.5C 1302.5,450.833 1299.17,447.5 1295.5,444.5C 1294.17,443.833 1293.17,442.833 1292.5,441.5C 1292.26,439.596 1291.26,438.262 1289.5,437.5C 1289.26,435.596 1288.26,434.262 1286.5,433.5C 1286.57,431.973 1285.91,430.973 1284.5,430.5C 1284.57,428.973 1283.91,427.973 1282.5,427.5C 1281.66,427.158 1281.33,426.492 1281.5,425.5C 1281.57,423.973 1280.91,422.973 1279.5,422.5C 1269.05,403.63 1264.05,383.297 1264.5,361.5C 1263.95,342.036 1267.95,323.702 1276.5,306.5C 1277.67,305.486 1278.34,304.153 1278.5,302.5C 1278.99,300.181 1279.99,298.181 1281.5,296.5C 1282.91,296.027 1283.57,295.027 1283.5,293.5C 1284.91,293.027 1285.57,292.027 1285.5,290.5C 1286.91,290.027 1287.57,289.027 1287.5,287.5C 1287.5,286.833 1287.83,286.5 1288.5,286.5C 1289.91,286.027 1290.57,285.027 1290.5,283.5C 1290.83,282.5 1291.5,281.833 1292.5,281.5C 1294.59,280.415 1295.92,278.749 1296.5,276.5C 1298.83,273.5 1301.5,270.833 1304.5,268.5C 1306.4,268.262 1307.74,267.262 1308.5,265.5C 1308.83,264.5 1309.5,263.833 1310.5,263.5C 1312.03,263.573 1313.03,262.906 1313.5,261.5C 1315.15,259.674 1317.15,258.34 1319.5,257.5C 1321.03,257.573 1322.03,256.906 1322.5,255.5C 1337.76,246.184 1354.42,241.851 1372.5,242.5C 1388.54,241.771 1403.54,245.105 1417.5,252.5 Z M 1407.5,310.5 C 1409.85,312.341 1412.52,313.674 1415.5,314.5C 1415.97,315.906 1416.97,316.573 1418.5,316.5C 1419.58,318.587 1421.25,319.92 1423.5,320.5C 1423.83,321.5 1424.5,322.167 1425.5,322.5C 1425.74,324.404 1426.74,325.738 1428.5,326.5C 1428.5,327.167 1428.83,327.5 1429.5,327.5C 1429.43,329.027 1430.09,330.027 1431.5,330.5C 1439.58,348.423 1440.58,366.757 1434.5,385.5C 1432.99,387.181 1431.99,389.181 1431.5,391.5C 1430.66,391.842 1430.33,392.508 1430.5,393.5C 1429.09,393.973 1428.43,394.973 1428.5,396.5C 1427.5,396.833 1426.83,397.5 1426.5,398.5C 1424.5,399.833 1422.83,401.5 1421.5,403.5C 1420.83,403.5 1420.5,403.833 1420.5,404.5C 1418.6,404.738 1417.26,405.738 1416.5,407.5C 1415.51,407.328 1414.84,407.662 1414.5,408.5C 1412.18,408.992 1410.18,409.992 1408.5,411.5C 1390.74,417.557 1373.41,416.557 1356.5,408.5C 1356.03,407.094 1355.03,406.427 1353.5,406.5C 1353.5,405.833 1353.17,405.5 1352.5,405.5C 1351.74,403.738 1350.4,402.738 1348.5,402.5C 1348.17,401.5 1347.5,400.833 1346.5,400.5C 1345.92,398.251 1344.59,396.585 1342.5,395.5C 1342.57,393.973 1341.91,392.973 1340.5,392.5C 1339.67,389.515 1338.34,386.849 1336.5,384.5C 1330.67,366.437 1331.67,348.77 1339.5,331.5C 1340.91,331.027 1341.57,330.027 1341.5,328.5C 1342.91,328.027 1343.57,327.027 1343.5,325.5C 1344.5,325.167 1345.17,324.5 1345.5,323.5C 1347.17,322.5 1348.5,321.167 1349.5,319.5C 1350.5,319.167 1351.17,318.5 1351.5,317.5C 1353.03,317.573 1354.03,316.906 1354.5,315.5C 1356.03,315.573 1357.03,314.906 1357.5,313.5C 1373.82,306.133 1390.49,305.133 1407.5,310.5 Z"/></g>
<g><path style="opacity:0.561" fill="#fefffe" d="M 783.5,243.5 C 780.833,246.833 777.833,249.833 774.5,252.5C 776.5,248.5 779.5,245.5 783.5,243.5 Z"/></g>
<g><path style="opacity:0.471" fill="#fefffe" d="M 948.5,243.5 C 948.027,244.906 947.027,245.573 945.5,245.5C 945.973,244.094 946.973,243.427 948.5,243.5 Z"/></g>
<g><path style="opacity:0.518" fill="#fefffe" d="M 941.5,247.5 C 941.027,248.906 940.027,249.573 938.5,249.5C 938.973,248.094 939.973,247.427 941.5,247.5 Z"/></g>
<g><path style="opacity:0.331" fill="#fefffe" d="M 1506.5,473.5 C 1506.5,398.833 1506.5,324.167 1506.5,249.5C 1484.17,249.5 1461.83,249.5 1439.5,249.5C 1439.83,256.2 1439.5,262.866 1438.5,269.5C 1435.48,267.146 1432.81,264.479 1430.5,261.5C 1433.39,262.882 1435.89,264.882 1438,267.5C 1438.5,261.175 1438.67,254.842 1438.5,248.5C 1461.5,248.5 1484.5,248.5 1507.5,248.5C 1507.83,323.669 1507.5,398.669 1506.5,473.5 Z"/></g>
<g><path style="opacity:0.322" fill="#fefffe" d="M 1641.5,248.5 C 1657.17,248.5 1672.83,248.5 1688.5,248.5C 1688.5,270.5 1688.5,292.5 1688.5,314.5C 1672.83,314.5 1657.17,314.5 1641.5,314.5C 1656.66,313.504 1671.99,313.17 1687.5,313.5C 1687.5,292.167 1687.5,270.833 1687.5,249.5C 1671.99,249.83 1656.66,249.496 1641.5,248.5 Z"/></g>
<g><path style="opacity:0.507" fill="#fefffe" d="M 2130.5,251.5 C 2118.22,250.186 2105.72,249.519 2093,249.5C 2080.48,249.501 2068.31,250.168 2056.5,251.5C 2055.6,250.791 2055.26,249.791 2055.5,248.5C 2080.5,248.5 2105.5,248.5 2130.5,248.5C 2130.5,249.5 2130.5,250.5 2130.5,251.5 Z"/></g>
<g><path style="opacity:0.5" fill="#fefffe" d="M 2293.5,248.5 C 2293.5,249.833 2293.5,251.167 2293.5,252.5C 2293.17,252.5 2292.83,252.5 2292.5,252.5C 2292.5,251.5 2292.5,250.5 2292.5,249.5C 2268.83,249.5 2245.17,249.5 2221.5,249.5C 2221.74,250.791 2221.4,251.791 2220.5,252.5C 2220.5,251.167 2220.5,249.833 2220.5,248.5C 2244.83,248.5 2269.17,248.5 2293.5,248.5 Z"/></g>
<g><path style="opacity:0.45" fill="#fefffe" d="M 908.5,249.5 C 910.262,250.262 911.262,251.596 911.5,253.5C 909.738,252.738 908.738,251.404 908.5,249.5 Z"/></g>
<g><path style="opacity:1" fill="#070707" d="M 2130.5,251.5 C 2139.07,273.207 2147.07,295.207 2154.5,317.5C 2154.4,319.553 2155.07,321.22 2156.5,322.5C 2157.74,324.214 2158.41,326.214 2158.5,328.5C 2158.4,330.553 2159.07,332.22 2160.5,333.5C 2167.07,349.875 2173.07,366.542 2178.5,383.5C 2179.27,387.139 2179.93,386.806 2180.5,382.5C 2193.26,338.891 2206.59,295.557 2220.5,252.5C 2221.4,251.791 2221.74,250.791 2221.5,249.5C 2245.17,249.5 2268.83,249.5 2292.5,249.5C 2292.5,250.5 2292.5,251.5 2292.5,252.5C 2282.54,282.047 2272.21,311.38 2261.5,340.5C 2260.07,341.78 2259.4,343.447 2259.5,345.5C 2258.74,349.784 2257.41,353.784 2255.5,357.5C 2254.07,358.78 2253.4,360.447 2253.5,362.5C 2252.74,366.784 2251.41,370.784 2249.5,374.5C 2248.07,375.78 2247.4,377.447 2247.5,379.5C 2238.31,407.244 2228.81,434.91 2219,462.5C 2216.96,468.803 2214.46,474.803 2211.5,480.5C 2210.07,481.78 2209.4,483.447 2209.5,485.5C 2207.01,491.818 2204.01,497.818 2200.5,503.5C 2199.09,503.973 2198.43,504.973 2198.5,506.5C 2198.67,507.492 2198.34,508.158 2197.5,508.5C 2196.09,508.973 2195.43,509.973 2195.5,511.5C 2194.09,511.973 2193.43,512.973 2193.5,514.5C 2192.09,514.973 2191.43,515.973 2191.5,517.5C 2189.74,518.262 2188.74,519.596 2188.5,521.5C 2188.5,522.167 2188.17,522.5 2187.5,522.5C 2186.09,522.973 2185.43,523.973 2185.5,525.5C 2184.83,526.833 2183.83,527.833 2182.5,528.5C 2179.17,531.167 2176.17,534.167 2173.5,537.5C 2173.17,538.5 2172.5,539.167 2171.5,539.5C 2169.6,539.738 2168.26,540.738 2167.5,542.5C 2164.35,545.579 2160.68,547.913 2156.5,549.5C 2152.85,550.659 2149.52,552.326 2146.5,554.5C 2139,558.215 2131,560.715 2122.5,562C 2111.21,563.326 2099.88,563.826 2088.5,563.5C 2088.5,542.167 2088.5,520.833 2088.5,499.5C 2099.54,499.993 2110.2,498.327 2120.5,494.5C 2122.03,494.573 2123.03,493.906 2123.5,492.5C 2124.29,491.599 2125.29,490.932 2126.5,490.5C 2129.83,489.167 2132.17,486.833 2133.5,483.5C 2133.5,482.833 2133.83,482.5 2134.5,482.5C 2135.91,482.027 2136.57,481.027 2136.5,479.5C 2137.91,479.027 2138.57,478.027 2138.5,476.5C 2140.36,471.947 2142.36,467.447 2144.5,463C 2143.75,462.329 2143.41,461.496 2143.5,460.5C 2143.6,458.447 2142.93,456.78 2141.5,455.5C 2139.93,453.491 2138.93,451.157 2138.5,448.5C 2138.6,446.447 2137.93,444.78 2136.5,443.5C 2134.93,441.491 2133.93,439.157 2133.5,436.5C 2133.6,434.447 2132.93,432.78 2131.5,431.5C 2129.93,429.491 2128.93,427.157 2128.5,424.5C 2128.6,422.447 2127.93,420.78 2126.5,419.5C 2124.93,417.491 2123.93,415.157 2123.5,412.5C 2123.6,410.447 2122.93,408.78 2121.5,407.5C 2119.93,405.491 2118.93,403.157 2118.5,400.5C 2118.6,398.447 2117.93,396.78 2116.5,395.5C 2114.93,393.491 2113.93,391.157 2113.5,388.5C 2113.6,386.447 2112.93,384.78 2111.5,383.5C 2103.99,367.131 2096.99,350.465 2090.5,333.5C 2090.6,331.447 2089.93,329.78 2088.5,328.5C 2086.93,326.491 2085.93,324.157 2085.5,321.5C 2085.6,319.447 2084.93,317.78 2083.5,316.5C 2081.93,314.491 2080.93,312.157 2080.5,309.5C 2080.6,307.447 2079.93,305.78 2078.5,304.5C 2076.93,302.491 2075.93,300.157 2075.5,297.5C 2075.6,295.447 2074.93,293.78 2073.5,292.5C 2071.93,290.491 2070.93,288.157 2070.5,285.5C 2070.6,283.447 2069.93,281.78 2068.5,280.5C 2066.93,278.491 2065.93,276.157 2065.5,273.5C 2065.6,271.447 2064.93,269.78 2063.5,268.5C 2061.93,266.491 2060.93,264.157 2060.5,261.5C 2060.6,259.447 2059.93,257.78 2058.5,256.5C 2057.07,255.22 2056.4,253.553 2056.5,251.5C 2068.31,250.168 2080.48,249.501 2093,249.5C 2105.72,249.519 2118.22,250.186 2130.5,251.5 Z"/></g>
<g><path style="opacity:0.511" fill="#fefffe" d="M 936.5,250.5 C 935.341,252.25 933.674,253.25 931.5,253.5C 932.659,251.75 934.326,250.75 936.5,250.5 Z"/></g>
<g><path style="opacity:0.493" fill="#fefffe" d="M 1417.5,252.5 C 1419.67,252.75 1421.34,253.75 1422.5,255.5C 1420.33,255.25 1418.66,254.25 1417.5,252.5 Z"/></g>
<g><path style="opacity:0.533" fill="#fefffe" d="M 1100.5,253.5 C 1100.03,254.906 1099.03,255.573 1097.5,255.5C 1097.97,254.094 1098.97,253.427 1100.5,253.5 Z"/></g>
<g><path style="opacity:0.502" fill="#fefffe" d="M 1189.5,253.5 C 1191.03,253.427 1192.03,254.094 1192.5,255.5C 1190.97,255.573 1189.97,254.906 1189.5,253.5 Z"/></g>
<g><path style="opacity:0.518" fill="#fefffe" d="M 772.5,254.5 C 772.573,256.027 771.906,257.027 770.5,257.5C 770.427,255.973 771.094,254.973 772.5,254.5 Z"/></g>
<g><path style="opacity:0.518" fill="#fefffe" d="M 912.5,254.5 C 913.906,254.973 914.573,255.973 914.5,257.5C 913.094,257.027 912.427,256.027 912.5,254.5 Z"/></g>
<g><path style="opacity:0.486" fill="#fefffe" d="M 929.5,254.5 C 929.027,255.906 928.027,256.573 926.5,256.5C 926.973,255.094 927.973,254.427 929.5,254.5 Z"/></g>
<g><path style="opacity:0.486" fill="#fefffe" d="M 1097.5,255.5 C 1097.03,256.906 1096.03,257.573 1094.5,257.5C 1094.97,256.094 1095.97,255.427 1097.5,255.5 Z"/></g>
<g><path style="opacity:0.549" fill="#fefffe" d="M 1192.5,255.5 C 1194.03,255.427 1195.03,256.094 1195.5,257.5C 1193.97,257.573 1192.97,256.906 1192.5,255.5 Z"/></g>
<g><path style="opacity:0.565" fill="#fefffe" d="M 1322.5,255.5 C 1322.03,256.906 1321.03,257.573 1319.5,257.5C 1319.97,256.094 1320.97,255.427 1322.5,255.5 Z"/></g>
<g><path style="opacity:0.502" fill="#fefffe" d="M 1422.5,255.5 C 1424.03,255.427 1425.03,256.094 1425.5,257.5C 1423.97,257.573 1422.97,256.906 1422.5,255.5 Z"/></g>
<g><path style="opacity:0.502" fill="#fefffe" d="M 2058.5,256.5 C 2059.93,257.78 2060.6,259.447 2060.5,261.5C 2059.07,260.22 2058.4,258.553 2058.5,256.5 Z"/></g>
<g><path style="opacity:0.58" fill="#fefffe" d="M 914.5,257.5 C 915.906,257.973 916.573,258.973 916.5,260.5C 915.094,260.027 914.427,259.027 914.5,257.5 Z"/></g>
<g><path style="opacity:0.502" fill="#fefffe" d="M 1195.5,257.5 C 1197.4,257.738 1198.74,258.738 1199.5,260.5C 1197.6,260.262 1196.26,259.262 1195.5,257.5 Z"/></g>
<g><path style="opacity:0.455" fill="#fefffe" d="M 1425.5,257.5 C 1427.03,257.427 1428.03,258.094 1428.5,259.5C 1426.97,259.573 1425.97,258.906 1425.5,257.5 Z"/></g>
<g><path style="opacity:0.565" fill="#fefffe" d="M 769.5,258.5 C 769.573,260.027 768.906,261.027 767.5,261.5C 767.427,259.973 768.094,258.973 769.5,258.5 Z"/></g>
<g><path style="opacity:0.533" fill="#fefffe" d="M 922.5,258.5 C 922.027,259.906 921.027,260.573 919.5,260.5C 919.973,259.094 920.973,258.427 922.5,258.5 Z"/></g>
<g><path style="opacity:0.513" fill="#fefffe" d="M 1093.5,258.5 C 1090.83,261.833 1087.83,264.833 1084.5,267.5C 1086.5,263.5 1089.5,260.5 1093.5,258.5 Z"/></g>
<g><path style="opacity:0.502" fill="#fefffe" d="M 916.5,260.5 C 917.5,260.5 918.5,260.5 919.5,260.5C 917.957,262.557 916.957,262.557 916.5,260.5 Z"/></g>
<g><path style="opacity:0.485" fill="#fefffe" d="M 1200.5,261.5 C 1204.83,263.833 1208.17,267.167 1210.5,271.5C 1206.83,268.5 1203.5,265.167 1200.5,261.5 Z"/></g>
<g><path style="opacity:0.486" fill="#fefffe" d="M 1313.5,261.5 C 1313.03,262.906 1312.03,263.573 1310.5,263.5C 1310.97,262.094 1311.97,261.427 1313.5,261.5 Z"/></g>
<g><path style="opacity:0.471" fill="#fefffe" d="M 766.5,263.5 C 766.573,265.027 765.906,266.027 764.5,266.5C 764.427,264.973 765.094,263.973 766.5,263.5 Z"/></g>
<g><path style="opacity:0.512" fill="#fefffe" d="M 1308.5,265.5 C 1307.74,267.262 1306.4,268.262 1304.5,268.5C 1305.26,266.738 1306.6,265.738 1308.5,265.5 Z"/></g>
<g><path style="opacity:0.502" fill="#fefffe" d="M 2063.5,268.5 C 2064.93,269.78 2065.6,271.447 2065.5,273.5C 2064.07,272.22 2063.4,270.553 2063.5,268.5 Z"/></g>
<g><path style="opacity:0.512" fill="#fefffe" d="M 761.5,272.5 C 761.598,274.553 760.931,276.22 759.5,277.5C 759.402,275.447 760.069,273.78 761.5,272.5 Z"/></g>
<g><path style="opacity:0.502" fill="#fefffe" d="M 1211.5,272.5 C 1213.26,273.262 1214.26,274.596 1214.5,276.5C 1212.74,275.738 1211.74,274.404 1211.5,272.5 Z"/></g>
<g><path style="opacity:0.502" fill="#fefffe" d="M 1214.5,276.5 C 1215.91,276.973 1216.57,277.973 1216.5,279.5C 1215.09,279.027 1214.43,278.027 1214.5,276.5 Z"/></g>
<g><path style="opacity:0.541" fill="#fefffe" d="M 1296.5,276.5 C 1295.92,278.749 1294.59,280.415 1292.5,281.5C 1293.08,279.251 1294.41,277.585 1296.5,276.5 Z"/></g>
<g><path style="opacity:0.439" fill="#fefffe" d="M 1216.5,279.5 C 1217.91,279.973 1218.57,280.973 1218.5,282.5C 1217.09,282.027 1216.43,281.027 1216.5,279.5 Z"/></g>
<g><path style="opacity:0.502" fill="#fefffe" d="M 2068.5,280.5 C 2069.93,281.78 2070.6,283.447 2070.5,285.5C 2069.07,284.22 2068.4,282.553 2068.5,280.5 Z"/></g>
<g><path style="opacity:0.502" fill="#fefffe" d="M 1290.5,283.5 C 1290.57,285.027 1289.91,286.027 1288.5,286.5C 1288.43,284.973 1289.09,283.973 1290.5,283.5 Z"/></g>
<g><path style="opacity:0.471" fill="#fefffe" d="M 1287.5,287.5 C 1287.57,289.027 1286.91,290.027 1285.5,290.5C 1285.43,288.973 1286.09,287.973 1287.5,287.5 Z"/></g>
<g><path style="opacity:0.752" fill="#fefffe" d="M 1804.5,288.5 C 1843.5,288.5 1882.5,288.5 1921.5,288.5C 1921.5,311.833 1921.5,335.167 1921.5,358.5C 1882.5,358.5 1843.5,358.5 1804.5,358.5C 1843,357.501 1881.66,357.168 1920.5,357.5C 1920.5,334.833 1920.5,312.167 1920.5,289.5C 1881.66,289.832 1843,289.499 1804.5,288.5 Z"/></g>
<g><path style="opacity:0.502" fill="#fefffe" d="M 1285.5,290.5 C 1285.57,292.027 1284.91,293.027 1283.5,293.5C 1283.43,291.973 1284.09,290.973 1285.5,290.5 Z"/></g>
<g><path style="opacity:0.481" fill="#fefffe" d="M 2073.5,292.5 C 2074.93,293.78 2075.6,295.447 2075.5,297.5C 2074.07,296.22 2073.4,294.553 2073.5,292.5 Z"/></g>
<g><path style="opacity:0.439" fill="#fefffe" d="M 1283.5,293.5 C 1283.57,295.027 1282.91,296.027 1281.5,296.5C 1281.43,294.973 1282.09,293.973 1283.5,293.5 Z"/></g>
<g><path style="opacity:0.565" fill="#fefffe" d="M 1278.5,302.5 C 1278.34,304.153 1277.67,305.486 1276.5,306.5C 1276.23,304.62 1276.9,303.287 1278.5,302.5 Z"/></g>
<g><path style="opacity:0.481" fill="#fefffe" d="M 2078.5,304.5 C 2079.93,305.78 2080.6,307.447 2080.5,309.5C 2079.07,308.22 2078.4,306.553 2078.5,304.5 Z"/></g>
<g><path style="opacity:0.533" fill="#fefffe" d="M 1144.5,309.5 C 1146.03,309.427 1147.03,310.094 1147.5,311.5C 1145.97,311.573 1144.97,310.906 1144.5,309.5 Z"/></g>
<g><path style="opacity:0.439" fill="#fefffe" d="M 1101.5,310.5 C 1101.03,311.906 1100.03,312.573 1098.5,312.5C 1098.97,311.094 1099.97,310.427 1101.5,310.5 Z"/></g>
<g><path style="opacity:0.485" fill="#fefffe" d="M 1407.5,310.5 C 1410.75,310.794 1413.42,312.127 1415.5,314.5C 1412.52,313.674 1409.85,312.341 1407.5,310.5 Z"/></g>
<g><path style="opacity:0.492" fill="#fefffe" d="M 1147.5,311.5 C 1149.4,311.738 1150.74,312.738 1151.5,314.5C 1149.6,314.262 1148.26,313.262 1147.5,311.5 Z"/></g>
<g><path style="opacity:0.478" fill="#fefffe" d="M 1098.5,312.5 C 1096.5,315.167 1094.17,317.5 1091.5,319.5C 1092.83,316.167 1095.17,313.833 1098.5,312.5 Z"/></g>
<g><path style="opacity:0.455" fill="#fefffe" d="M 1357.5,313.5 C 1357.03,314.906 1356.03,315.573 1354.5,315.5C 1354.97,314.094 1355.97,313.427 1357.5,313.5 Z"/></g>
<g><path style="opacity:0.455" fill="#fefffe" d="M 1415.5,314.5 C 1417.03,314.427 1418.03,315.094 1418.5,316.5C 1416.97,316.573 1415.97,315.906 1415.5,314.5 Z"/></g>
<g><path style="opacity:0.502" fill="#fefffe" d="M 1354.5,315.5 C 1354.03,316.906 1353.03,317.573 1351.5,317.5C 1351.97,316.094 1352.97,315.427 1354.5,315.5 Z"/></g>
<g><path style="opacity:0.494" fill="#fefffe" d="M 1418.5,316.5 C 1420.75,317.08 1422.42,318.413 1423.5,320.5C 1421.25,319.92 1419.58,318.587 1418.5,316.5 Z"/></g>
<g><path style="opacity:0.481" fill="#fefffe" d="M 2083.5,316.5 C 2084.93,317.78 2085.6,319.447 2085.5,321.5C 2084.07,320.22 2083.4,318.553 2083.5,316.5 Z"/></g>
<g><path style="opacity:0.518" fill="#fefffe" d="M 1154.5,317.5 C 1155.91,317.973 1156.57,318.973 1156.5,320.5C 1155.09,320.027 1154.43,319.027 1154.5,317.5 Z"/></g>
<g><path style="opacity:0.502" fill="#fefffe" d="M 2154.5,317.5 C 2155.93,318.78 2156.6,320.447 2156.5,322.5C 2155.07,321.22 2154.4,319.553 2154.5,317.5 Z"/></g>
<g><path style="opacity:0.529" fill="#fefffe" d="M 1349.5,319.5 C 1348.5,321.167 1347.17,322.5 1345.5,323.5C 1345.83,321.167 1347.17,319.833 1349.5,319.5 Z"/></g>
<g><path style="opacity:0.52" fill="#fefffe" d="M 1090.5,320.5 C 1090.25,322.674 1089.25,324.341 1087.5,325.5C 1087.75,323.326 1088.75,321.659 1090.5,320.5 Z"/></g>
<g><path style="opacity:0.486" fill="#fefffe" d="M 1156.5,320.5 C 1157.91,320.973 1158.57,321.973 1158.5,323.5C 1157.09,323.027 1156.43,322.027 1156.5,320.5 Z"/></g>
<g><path style="opacity:0.471" fill="#fefffe" d="M 1425.5,322.5 C 1427.26,323.262 1428.26,324.596 1428.5,326.5C 1426.74,325.738 1425.74,324.404 1425.5,322.5 Z"/></g>
<g><path style="opacity:0.471" fill="#fefffe" d="M 1343.5,325.5 C 1343.57,327.027 1342.91,328.027 1341.5,328.5C 1341.43,326.973 1342.09,325.973 1343.5,325.5 Z"/></g>
<g><path style="opacity:0.565" fill="#fefffe" d="M 1429.5,327.5 C 1430.91,327.973 1431.57,328.973 1431.5,330.5C 1430.09,330.027 1429.43,329.027 1429.5,327.5 Z"/></g>
<g><path style="opacity:0.455" fill="#fefffe" d="M 1341.5,328.5 C 1341.57,330.027 1340.91,331.027 1339.5,331.5C 1339.43,329.973 1340.09,328.973 1341.5,328.5 Z"/></g>
<g><path style="opacity:0.481" fill="#fefffe" d="M 2088.5,328.5 C 2089.93,329.78 2090.6,331.447 2090.5,333.5C 2089.07,332.22 2088.4,330.553 2088.5,328.5 Z"/></g>
<g><path style="opacity:0.502" fill="#fefffe" d="M 2158.5,328.5 C 2159.93,329.78 2160.6,331.447 2160.5,333.5C 2159.07,332.22 2158.4,330.553 2158.5,328.5 Z"/></g>
<g><path style="opacity:0.502" fill="#fefffe" d="M 2261.5,340.5 C 2261.6,342.553 2260.93,344.22 2259.5,345.5C 2259.4,343.447 2260.07,341.78 2261.5,340.5 Z"/></g>
<g><path style="opacity:0.512" fill="#fefffe" d="M 760.5,357.5 C 761.931,358.78 762.598,360.447 762.5,362.5C 761.069,361.22 760.402,359.553 760.5,357.5 Z"/></g>
<g><path style="opacity:0.502" fill="#fefffe" d="M 2255.5,357.5 C 2255.6,359.553 2254.93,361.22 2253.5,362.5C 2253.4,360.447 2254.07,358.78 2255.5,357.5 Z"/></g>
<g><path style="opacity:0.502" fill="#fefffe" d="M 763.5,364.5 C 764.906,364.973 765.573,365.973 765.5,367.5C 764.094,367.027 763.427,366.027 763.5,364.5 Z"/></g>
<g><path style="opacity:0.502" fill="#fefffe" d="M 766.5,369.5 C 767.906,369.973 768.573,370.973 768.5,372.5C 767.094,372.027 766.427,371.027 766.5,369.5 Z"/></g>
<g><path style="opacity:0.477" fill="#fefffe" d="M 921.5,373.5 C 919.451,372.359 917.451,372.359 915.5,373.5C 915.415,372.005 916.081,371.005 917.5,370.5C 919.261,371.035 920.594,372.035 921.5,373.5 Z"/></g>
<g><path style="opacity:0.518" fill="#fefffe" d="M 768.5,372.5 C 769.906,372.973 770.573,373.973 770.5,375.5C 769.094,375.027 768.427,374.027 768.5,372.5 Z"/></g>
<g><path style="opacity:0.518" fill="#fefffe" d="M 923.5,374.5 C 925.027,374.427 926.027,375.094 926.5,376.5C 924.973,376.573 923.973,375.906 923.5,374.5 Z"/></g>
<g><path style="opacity:0.502" fill="#fefffe" d="M 2249.5,374.5 C 2249.6,376.553 2248.93,378.22 2247.5,379.5C 2247.4,377.447 2248.07,375.78 2249.5,374.5 Z"/></g>
<g><path style="opacity:0.46" fill="#fefffe" d="M 771.5,376.5 C 773.262,377.262 774.262,378.596 774.5,380.5C 772.738,379.738 771.738,378.404 771.5,376.5 Z"/></g>
<g><path style="opacity:0.439" fill="#fefffe" d="M 913.5,376.5 C 913.573,378.027 912.906,379.027 911.5,379.5C 911.427,377.973 912.094,376.973 913.5,376.5 Z"/></g>
<g><path style="opacity:0.471" fill="#fefffe" d="M 930.5,378.5 C 932.027,378.427 933.027,379.094 933.5,380.5C 931.973,380.573 930.973,379.906 930.5,378.5 Z"/></g>
<g><path style="opacity:0.481" fill="#fefffe" d="M 692.5,380.5 C 693.931,381.78 694.598,383.447 694.5,385.5C 693.069,384.22 692.402,382.553 692.5,380.5 Z"/></g>
<g><path style="opacity:0.455" fill="#fefffe" d="M 910.5,380.5 C 909.92,382.749 908.587,384.415 906.5,385.5C 907.08,383.251 908.413,381.585 910.5,380.5 Z"/></g>
<g><path style="opacity:0.549" fill="#fefffe" d="M 935.5,381.5 C 937.027,381.427 938.027,382.094 938.5,383.5C 936.973,383.573 935.973,382.906 935.5,381.5 Z"/></g>
<g><path style="opacity:0.544" fill="#fefffe" d="M 2180.5,382.5 C 2179.93,386.806 2179.27,387.139 2178.5,383.5C 2179.17,383.167 2179.83,382.833 2180.5,382.5 Z"/></g>
<g><path style="opacity:0.523" fill="#fefffe" d="M 2111.5,383.5 C 2112.93,384.78 2113.6,386.447 2113.5,388.5C 2112.07,387.22 2111.4,385.553 2111.5,383.5 Z"/></g>
<g><path style="opacity:0.485" fill="#fefffe" d="M 1336.5,384.5 C 1338.34,386.849 1339.67,389.515 1340.5,392.5C 1338.13,390.421 1336.79,387.754 1336.5,384.5 Z"/></g>
<g><path style="opacity:0.502" fill="#fefffe" d="M 942.5,385.5 C 944.027,385.427 945.027,386.094 945.5,387.5C 943.973,387.573 942.973,386.906 942.5,385.5 Z"/></g>
<g><path style="opacity:0.447" fill="#fefffe" d="M 1434.5,385.5 C 1434.54,388.089 1433.54,390.089 1431.5,391.5C 1431.99,389.181 1432.99,387.181 1434.5,385.5 Z"/></g>
<g><path style="opacity:0.502" fill="#fefffe" d="M 904.5,387.5 C 903.415,389.587 901.749,390.92 899.5,391.5C 900.585,389.413 902.251,388.08 904.5,387.5 Z"/></g>
<g><path style="opacity:0.544" fill="#fefffe" d="M 783.5,389.5 C 785.404,389.738 786.738,390.738 787.5,392.5C 785.596,392.262 784.262,391.262 783.5,389.5 Z"/></g>
<g><path style="opacity:0.455" fill="#fefffe" d="M 949.5,389.5 C 951.027,389.427 952.027,390.094 952.5,391.5C 950.973,391.573 949.973,390.906 949.5,389.5 Z"/></g>
<g><path style="opacity:0.439" fill="#fefffe" d="M 787.5,392.5 C 789.027,392.427 790.027,393.094 790.5,394.5C 788.973,394.573 787.973,393.906 787.5,392.5 Z"/></g>
<g><path style="opacity:0.518" fill="#fefffe" d="M 898.5,392.5 C 898.027,393.906 897.027,394.573 895.5,394.5C 895.973,393.094 896.973,392.427 898.5,392.5 Z"/></g>
<g><path style="opacity:0.533" fill="#fefffe" d="M 954.5,392.5 C 956.027,392.427 957.027,393.094 957.5,394.5C 955.973,394.573 954.973,393.906 954.5,392.5 Z"/></g>
<g><path style="opacity:0.439" fill="#fefffe" d="M 1340.5,392.5 C 1341.91,392.973 1342.57,393.973 1342.5,395.5C 1341.09,395.027 1340.43,394.027 1340.5,392.5 Z"/></g>
<g><path style="opacity:0.58" fill="#fefffe" d="M 1430.5,393.5 C 1430.57,395.027 1429.91,396.027 1428.5,396.5C 1428.43,394.973 1429.09,393.973 1430.5,393.5 Z"/></g>
<g><path style="opacity:0.471" fill="#fefffe" d="M 895.5,394.5 C 895.027,395.906 894.027,396.573 892.5,396.5C 892.973,395.094 893.973,394.427 895.5,394.5 Z"/></g>
<g><path style="opacity:0.478" fill="#fefffe" d="M 1342.5,395.5 C 1344.59,396.585 1345.92,398.251 1346.5,400.5C 1344.41,399.415 1343.08,397.749 1342.5,395.5 Z"/></g>
<g><path style="opacity:0.523" fill="#fefffe" d="M 2116.5,395.5 C 2117.93,396.78 2118.6,398.447 2118.5,400.5C 2117.07,399.22 2116.4,397.553 2116.5,395.5 Z"/></g>
<g><path style="opacity:0.533" fill="#fefffe" d="M 793.5,396.5 C 795.027,396.427 796.027,397.094 796.5,398.5C 794.973,398.573 793.973,397.906 793.5,396.5 Z"/></g>
<g><path style="opacity:0.502" fill="#fefffe" d="M 961.5,396.5 C 963.027,396.427 964.027,397.094 964.5,398.5C 962.973,398.573 961.973,397.906 961.5,396.5 Z"/></g>
<g><path style="opacity:0.471" fill="#fefffe" d="M 890.5,397.5 C 890.027,398.906 889.027,399.573 887.5,399.5C 887.973,398.094 888.973,397.427 890.5,397.5 Z"/></g>
<g><path style="opacity:0.565" fill="#fefffe" d="M 1426.5,398.5 C 1425.83,401.167 1424.17,402.833 1421.5,403.5C 1422.83,401.5 1424.5,399.833 1426.5,398.5 Z"/></g>
<g><path style="opacity:0.471" fill="#fefffe" d="M 701.5,399.5 C 702.906,399.973 703.573,400.973 703.5,402.5C 702.094,402.027 701.427,401.027 701.5,399.5 Z"/></g>
<g><path style="opacity:0.511" fill="#fefffe" d="M 966.5,399.5 C 968.674,399.75 970.341,400.75 971.5,402.5C 969.326,402.25 967.659,401.25 966.5,399.5 Z"/></g>
<g><path style="opacity:0.492" fill="#fefffe" d="M 1348.5,402.5 C 1350.4,402.738 1351.74,403.738 1352.5,405.5C 1350.6,405.262 1349.26,404.262 1348.5,402.5 Z"/></g>
<g><path style="opacity:0.533" fill="#fefffe" d="M 973.5,403.5 C 975.027,403.427 976.027,404.094 976.5,405.5C 974.973,405.573 973.973,404.906 973.5,403.5 Z"/></g>
<g><path style="opacity:0.424" fill="#fefffe" d="M 704.5,404.5 C 705.906,404.973 706.573,405.973 706.5,407.5C 705.094,407.027 704.427,406.027 704.5,404.5 Z"/></g>
<g><path style="opacity:0.512" fill="#fefffe" d="M 1420.5,404.5 C 1419.74,406.262 1418.4,407.262 1416.5,407.5C 1417.26,405.738 1418.6,404.738 1420.5,404.5 Z"/></g>
<g><path style="opacity:0.565" fill="#fefffe" d="M 1353.5,406.5 C 1355.03,406.427 1356.03,407.094 1356.5,408.5C 1354.97,408.573 1353.97,407.906 1353.5,406.5 Z"/></g>
<g><path style="opacity:0.439" fill="#fefffe" d="M 706.5,407.5 C 707.906,407.973 708.573,408.973 708.5,410.5C 707.094,410.027 706.427,409.027 706.5,407.5 Z"/></g>
<g><path style="opacity:0.478" fill="#fefffe" d="M 1647.5,407.5 C 1649.82,407.992 1651.82,408.992 1653.5,410.5C 1650.91,410.539 1648.91,409.539 1647.5,407.5 Z"/></g>
<g><path style="opacity:0.523" fill="#fefffe" d="M 2121.5,407.5 C 2122.93,408.78 2123.6,410.447 2123.5,412.5C 2122.07,411.22 2121.4,409.553 2121.5,407.5 Z"/></g>
<g><path style="opacity:0.486" fill="#fefffe" d="M 978.5,408.5 C 978.573,410.027 977.906,411.027 976.5,411.5C 976.427,409.973 977.094,408.973 978.5,408.5 Z"/></g>
<g><path style="opacity:0.447" fill="#fefffe" d="M 1414.5,408.5 C 1413.09,410.539 1411.09,411.539 1408.5,411.5C 1410.18,409.992 1412.18,408.992 1414.5,408.5 Z"/></g>
<g><path style="opacity:0.995" fill="#3190ca" d="M -0.5,409.5 C 68.3354,409.167 137.002,409.501 205.5,410.5C 202.916,492.213 166.249,553.046 95.5,593C 71.6949,604.883 46.6949,612.383 20.5,615.5C 13.5,615.5 6.5,615.5 -0.5,615.5C -0.5,546.833 -0.5,478.167 -0.5,409.5 Z"/></g>
<g><path style="opacity:0.596" fill="#fefffe" d="M 709.5,411.5 C 710.906,411.973 711.573,412.973 711.5,414.5C 710.094,414.027 709.427,413.027 709.5,411.5 Z"/></g>
<g><path style="opacity:0.549" fill="#fefffe" d="M 976.5,411.5 C 976.573,413.027 975.906,414.027 974.5,414.5C 974.427,412.973 975.094,411.973 976.5,411.5 Z"/></g>
<g><path style="opacity:0.279" fill="#fefffe" d="M 1686.5,412.5 C 1686.56,411.957 1686.89,411.624 1687.5,411.5C 1688.5,432.489 1688.83,453.489 1688.5,474.5C 1685.5,474.5 1682.5,474.5 1679.5,474.5C 1681.95,473.527 1684.61,473.194 1687.5,473.5C 1687.83,452.993 1687.5,432.66 1686.5,412.5 Z"/></g>
<g><path style="opacity:0.455" fill="#fefffe" d="M 711.5,414.5 C 712.906,414.973 713.573,415.973 713.5,417.5C 712.094,417.027 711.427,416.027 711.5,414.5 Z"/></g>
<g><path style="opacity:0.502" fill="#fefffe" d="M 974.5,414.5 C 974.573,416.027 973.906,417.027 972.5,417.5C 972.427,415.973 973.094,414.973 974.5,414.5 Z"/></g>
<g><path style="opacity:0.549" fill="#fefffe" d="M 971.5,418.5 C 971.573,420.027 970.906,421.027 969.5,421.5C 969.427,419.973 970.094,418.973 971.5,418.5 Z"/></g>
<g><path style="opacity:0.554" fill="#fefffe" d="M 715.5,419.5 C 717.262,420.262 718.262,421.596 718.5,423.5C 716.738,422.738 715.738,421.404 715.5,419.5 Z"/></g>
<g><path style="opacity:0.512" fill="#fefffe" d="M 2126.5,419.5 C 2127.93,420.78 2128.6,422.447 2128.5,424.5C 2127.07,423.22 2126.4,421.553 2126.5,419.5 Z"/></g>
<g><path style="opacity:0.523" fill="#fefffe" d="M 968.5,422.5 C 968.262,424.404 967.262,425.738 965.5,426.5C 965.738,424.596 966.738,423.262 968.5,422.5 Z"/></g>
<g><path style="opacity:0.502" fill="#fefffe" d="M 1279.5,422.5 C 1280.91,422.973 1281.57,423.973 1281.5,425.5C 1280.09,425.027 1279.43,424.027 1279.5,422.5 Z"/></g>
<g><path style="opacity:0.53" fill="#fefffe" d="M 720.5,425.5 C 725.833,430.167 730.833,435.167 735.5,440.5C 729.5,436.5 724.5,431.5 720.5,425.5 Z"/></g>
<g><path style="opacity:0.486" fill="#fefffe" d="M 1282.5,427.5 C 1283.91,427.973 1284.57,428.973 1284.5,430.5C 1283.09,430.027 1282.43,429.027 1282.5,427.5 Z"/></g>
<g><path style="opacity:0.459" fill="#fefffe" d="M 962.5,429.5 C 960.167,433.833 956.833,437.167 952.5,439.5C 955.5,435.833 958.833,432.5 962.5,429.5 Z"/></g>
<g><path style="opacity:0.502" fill="#fefffe" d="M 1284.5,430.5 C 1285.91,430.973 1286.57,431.973 1286.5,433.5C 1285.09,433.027 1284.43,432.027 1284.5,430.5 Z"/></g>
<g><path style="opacity:0.502" fill="#fefffe" d="M 2131.5,431.5 C 2132.93,432.78 2133.6,434.447 2133.5,436.5C 2132.07,435.22 2131.4,433.553 2131.5,431.5 Z"/></g>
<g><path style="opacity:0.492" fill="#fefffe" d="M 1286.5,433.5 C 1288.26,434.262 1289.26,435.596 1289.5,437.5C 1287.74,436.738 1286.74,435.404 1286.5,433.5 Z"/></g>
<g><path style="opacity:0.502" fill="#fefffe" d="M 1580.5,435.5 C 1581.93,436.78 1582.6,438.447 1582.5,440.5C 1581.07,439.22 1580.4,437.553 1580.5,435.5 Z"/></g>
<g><path style="opacity:0.46" fill="#fefffe" d="M 1289.5,437.5 C 1291.26,438.262 1292.26,439.596 1292.5,441.5C 1290.74,440.738 1289.74,439.404 1289.5,437.5 Z"/></g>
<g><path style="opacity:0.512" fill="#fefffe" d="M 949.5,442.5 C 948.738,444.262 947.404,445.262 945.5,445.5C 946.262,443.738 947.596,442.738 949.5,442.5 Z"/></g>
<g><path style="opacity:0.46" fill="#fefffe" d="M 738.5,443.5 C 740.404,443.738 741.738,444.738 742.5,446.5C 740.596,446.262 739.262,445.262 738.5,443.5 Z"/></g>
<g><path style="opacity:0.502" fill="#fefffe" d="M 2136.5,443.5 C 2137.93,444.78 2138.6,446.447 2138.5,448.5C 2137.07,447.22 2136.4,445.553 2136.5,443.5 Z"/></g>
<g><path style="opacity:0.449" fill="#fefffe" d="M 1295.5,444.5 C 1299.17,447.5 1302.5,450.833 1305.5,454.5C 1301.17,452.167 1297.83,448.833 1295.5,444.5 Z"/></g>
<g><path style="opacity:0.549" fill="#fefffe" d="M 1584.5,444.5 C 1585.91,444.973 1586.57,445.973 1586.5,447.5C 1585.09,447.027 1584.43,446.027 1584.5,444.5 Z"/></g>
<g><path style="opacity:0.549" fill="#fefffe" d="M 944.5,446.5 C 944.027,447.906 943.027,448.573 941.5,448.5C 941.973,447.094 942.973,446.427 944.5,446.5 Z"/></g>
<g><path style="opacity:0.502" fill="#fefffe" d="M 743.5,447.5 C 745.027,447.427 746.027,448.094 746.5,449.5C 744.973,449.573 743.973,448.906 743.5,447.5 Z"/></g>
<g><path style="opacity:0.502" fill="#fefffe" d="M 940.5,449.5 C 940.027,450.906 939.027,451.573 937.5,451.5C 937.973,450.094 938.973,449.427 940.5,449.5 Z"/></g>
<g><path style="opacity:0.424" fill="#fefffe" d="M 747.5,450.5 C 749.027,450.427 750.027,451.094 750.5,452.5C 748.973,452.573 747.973,451.906 747.5,450.5 Z"/></g>
<g><path style="opacity:0.486" fill="#fefffe" d="M 1588.5,450.5 C 1589.91,450.973 1590.57,451.973 1590.5,453.5C 1589.09,453.027 1588.43,452.027 1588.5,450.5 Z"/></g>
<g><path style="opacity:0.565" fill="#fefffe" d="M 937.5,451.5 C 937.027,452.906 936.027,453.573 934.5,453.5C 934.973,452.094 935.973,451.427 937.5,451.5 Z"/></g>
<g><path style="opacity:0.502" fill="#fefffe" d="M 750.5,452.5 C 752.027,452.427 753.027,453.094 753.5,454.5C 751.973,454.573 750.973,453.906 750.5,452.5 Z"/></g>
<g><path style="opacity:0.516" fill="#fefffe" d="M 1439.5,473.5 C 1438.83,467.167 1438.17,460.833 1437.5,454.5C 1437.78,453.711 1438.28,453.044 1439,452.5C 1439.5,459.492 1439.67,466.492 1439.5,473.5 Z"/></g>
<g><path style="opacity:0.533" fill="#fefffe" d="M 934.5,453.5 C 934.027,454.906 933.027,455.573 931.5,455.5C 931.973,454.094 932.973,453.427 934.5,453.5 Z"/></g>
<g><path style="opacity:0.455" fill="#fefffe" d="M 753.5,454.5 C 755.027,454.427 756.027,455.094 756.5,456.5C 754.973,456.573 753.973,455.906 753.5,454.5 Z"/></g>
<g><path style="opacity:0.424" fill="#fefffe" d="M 931.5,455.5 C 931.027,456.906 930.027,457.573 928.5,457.5C 928.973,456.094 929.973,455.427 931.5,455.5 Z"/></g>
<g><path style="opacity:0.502" fill="#fefffe" d="M 2141.5,455.5 C 2142.93,456.78 2143.6,458.447 2143.5,460.5C 2142.07,459.22 2141.4,457.553 2141.5,455.5 Z"/></g>
<g><path style="opacity:0.512" fill="#fefffe" d="M 1307.5,456.5 C 1309.4,456.738 1310.74,457.738 1311.5,459.5C 1309.6,459.262 1308.26,458.262 1307.5,456.5 Z"/></g>
<g><path style="opacity:0.502" fill="#fefffe" d="M 758.5,457.5 C 760.027,457.427 761.027,458.094 761.5,459.5C 759.973,459.573 758.973,458.906 758.5,457.5 Z"/></g>
<g><path style="opacity:0.513" fill="#fefffe" d="M 924.5,459.5 C 921.086,462.54 917.086,464.54 912.5,465.5C 916.182,462.992 920.182,460.992 924.5,459.5 Z"/></g>
<g><path style="opacity:0.486" fill="#fefffe" d="M 1312.5,460.5 C 1314.03,460.427 1315.03,461.094 1315.5,462.5C 1313.97,462.573 1312.97,461.906 1312.5,460.5 Z"/></g>
<g><path style="opacity:0.492" fill="#fefffe" d="M 1431.5,460.5 C 1430.74,462.262 1429.4,463.262 1427.5,463.5C 1428.26,461.738 1429.6,460.738 1431.5,460.5 Z"/></g>
<g><path style="opacity:0.486" fill="#fefffe" d="M 1597.5,460.5 C 1599.03,460.427 1600.03,461.094 1600.5,462.5C 1598.97,462.573 1597.97,461.906 1597.5,460.5 Z"/></g>
<g><path style="opacity:0.549" fill="#fefffe" d="M 1315.5,462.5 C 1317.03,462.427 1318.03,463.094 1318.5,464.5C 1316.97,464.573 1315.97,463.906 1315.5,462.5 Z"/></g>
<g><path style="opacity:0.565" fill="#fefffe" d="M 1600.5,462.5 C 1602.03,462.427 1603.03,463.094 1603.5,464.5C 1601.97,464.573 1600.97,463.906 1600.5,462.5 Z"/></g>
<g><path style="opacity:0.471" fill="#fefffe" d="M 1318.5,464.5 C 1320.03,464.427 1321.03,465.094 1321.5,466.5C 1319.97,466.573 1318.97,465.906 1318.5,464.5 Z"/></g>
<g><path style="opacity:0.502" fill="#fefffe" d="M 1421.5,467.5 C 1421.03,468.906 1420.03,469.573 1418.5,469.5C 1418.97,468.094 1419.97,467.427 1421.5,467.5 Z"/></g>
<g><path style="opacity:0.502" fill="#fefffe" d="M 1414.5,471.5 C 1413.22,472.931 1411.55,473.598 1409.5,473.5C 1410.78,472.069 1412.45,471.402 1414.5,471.5 Z"/></g>
<g><path style="opacity:0.455" fill="#fefffe" d="M 2138.5,476.5 C 2138.57,478.027 2137.91,479.027 2136.5,479.5C 2136.43,477.973 2137.09,476.973 2138.5,476.5 Z"/></g>
<g><path style="opacity:0.455" fill="#fefffe" d="M 2136.5,479.5 C 2136.57,481.027 2135.91,482.027 2134.5,482.5C 2134.43,480.973 2135.09,479.973 2136.5,479.5 Z"/></g>
<g><path style="opacity:0.512" fill="#fefffe" d="M 2211.5,480.5 C 2211.6,482.553 2210.93,484.22 2209.5,485.5C 2209.4,483.447 2210.07,481.78 2211.5,480.5 Z"/></g>
<g><path style="opacity:0.483" fill="#fefffe" d="M 2133.5,483.5 C 2132.17,486.833 2129.83,489.167 2126.5,490.5C 2128.5,487.833 2130.83,485.5 2133.5,483.5 Z"/></g>
<g><path style="opacity:0.486" fill="#fefffe" d="M 2123.5,492.5 C 2123.03,493.906 2122.03,494.573 2120.5,494.5C 2120.97,493.094 2121.97,492.427 2123.5,492.5 Z"/></g>
<g><path style="opacity:0.502" fill="#fefffe" d="M 2200.5,503.5 C 2200.57,505.027 2199.91,506.027 2198.5,506.5C 2198.43,504.973 2199.09,503.973 2200.5,503.5 Z"/></g>
<g><path style="opacity:0.486" fill="#fefffe" d="M 2197.5,508.5 C 2197.57,510.027 2196.91,511.027 2195.5,511.5C 2195.43,509.973 2196.09,508.973 2197.5,508.5 Z"/></g>
<g><path style="opacity:0.565" fill="#fefffe" d="M 2195.5,511.5 C 2195.57,513.027 2194.91,514.027 2193.5,514.5C 2193.43,512.973 2194.09,511.973 2195.5,511.5 Z"/></g>
<g><path style="opacity:0.502" fill="#fefffe" d="M 2193.5,514.5 C 2193.57,516.027 2192.91,517.027 2191.5,517.5C 2191.43,515.973 2192.09,514.973 2193.5,514.5 Z"/></g>
<g><path style="opacity:0.492" fill="#fefffe" d="M 2191.5,517.5 C 2191.26,519.404 2190.26,520.738 2188.5,521.5C 2188.74,519.596 2189.74,518.262 2191.5,517.5 Z"/></g>
<g><path style="opacity:0.502" fill="#fefffe" d="M 2187.5,522.5 C 2187.57,524.027 2186.91,525.027 2185.5,525.5C 2185.43,523.973 2186.09,522.973 2187.5,522.5 Z"/></g>
<g><path style="opacity:0.443" fill="#fefffe" d="M 2182.5,528.5 C 2180.5,532.5 2177.5,535.5 2173.5,537.5C 2176.17,534.167 2179.17,531.167 2182.5,528.5 Z"/></g>
<g><path style="opacity:0.502" fill="#fefffe" d="M 2171.5,539.5 C 2170.74,541.262 2169.4,542.262 2167.5,542.5C 2168.26,540.738 2169.6,539.738 2171.5,539.5 Z"/></g>
<g><path style="opacity:0.52" fill="#fefffe" d="M 2156.5,549.5 C 2153.75,552.207 2150.42,553.873 2146.5,554.5C 2149.52,552.326 2152.85,550.659 2156.5,549.5 Z"/></g>
</svg>
